<?xml version="1.0" encoding="utf-8"?>
<!-- Generator: Adobe Illustrator 22.1.0, SVG Export Plug-In . SVG Version: 6.00 Build 0)  -->
<svg version="1.1" id="Layer_1" xmlns="http://www.w3.org/2000/svg" xmlns:xlink="http://www.w3.org/1999/xlink" x="0px" y="0px"
	 viewBox="0 0 1080 1080" enable-background="new 0 0 1080 1080" xml:space="preserve">
<g>
	<line fill="none" stroke="#000000" stroke-miterlimit="10" x1="169.5" y1="155" x2="169.5" y2="915"/>
</g>
<g>
	<line fill="none" stroke="#000000" stroke-miterlimit="10" x1="882.5" y1="915.5" x2="130" y2="915.5"/>
</g>
<rect x="169.5" y="826.5" fill="#F2F2F2" stroke="#000000" stroke-miterlimit="10" width="395" height="89"/>
<rect x="564.5" y="739.5" fill="#F2F2F2" stroke="#000000" stroke-miterlimit="10" width="318" height="176"/>
<polygon fill="#F2F2F2" stroke="#000000" stroke-miterlimit="10" points="564.5,352.5 169.5,826.5 564.5,826.5 "/>
<polygon fill="#F2F2F2" stroke="#000000" stroke-miterlimit="10" points="882.5,739.5 564.5,739.5 564.5,352.5 "/>
<line fill="none" stroke="#000000" stroke-miterlimit="10" stroke-dasharray="6,12" x1="169.5" y1="352.5" x2="564.5" y2="352.5"/>
<line fill="none" stroke="#000000" stroke-miterlimit="10" stroke-dasharray="2,4" x1="608" y1="352.5" x2="695.5" y2="352.5"/>
<line fill="none" stroke="#FF0000" stroke-miterlimit="10" stroke-dasharray="6,12" x1="564.5" y1="492" x2="883" y2="492"/>
<line fill="none" stroke="#FF0000" stroke-miterlimit="10" stroke-dasharray="2,4" x1="747.9" y1="301.9" x2="883" y2="284.9"/>
<line fill="none" x1="481.2" y1="591" x2="647.1" y2="391"/>
<line fill="none" stroke="#FF0000" stroke-miterlimit="10" stroke-dasharray="2,4" x1="170.1" y1="915.5" x2="305.2" y2="905.6"/>
<line fill="none" stroke="#FF0000" stroke-miterlimit="10" x1="882.5" y1="915.5" x2="882.5" y2="154.5"/>
<text transform="matrix(1 0 0 1 106.3228 833.9785)" font-family="'RobotoMono-Regular'" font-size="24px">v0</text>
<text transform="matrix(1 0 0 1 138.4341 961.9785)" font-family="'RobotoMono-Italic'" font-size="18px">t0(=0)</text>
<g>
	<text transform="matrix(1 0 0 1 932.0992 707.7501)" fill="#FF0000" font-family="'RobotoMono-Regular'" font-size="18px">d0?</text>
</g>
<g>
	<text transform="matrix(1 0 0 1 932.0992 390.8676)" fill="#FF0000" font-family="'RobotoMono-Regular'" font-size="18px">d1?</text>
</g>
<text transform="matrix(1 0 0 1 537.7163 961.9785)" font-family="'RobotoMono-Italic'" font-size="18px">tmax?</text>
<text transform="matrix(1 0 0 1 868.2808 961.9785)" font-family="'RobotoMono-Italic'" font-size="18px">t1?</text>
<text transform="matrix(1 0 0 1 106.3228 743.9785)" font-family="'RobotoMono-Regular'" font-size="24px">v1</text>
<g>
	<g>
		<line fill="none" stroke="#000000" stroke-miterlimit="10" x1="564" y1="739" x2="561" y2="739"/>
		
			<line fill="none" stroke="#000000" stroke-miterlimit="10" stroke-dasharray="5.9846,11.9692" x1="549" y1="739" x2="178" y2="739"/>
		<line fill="none" stroke="#000000" stroke-miterlimit="10" x1="172" y1="739" x2="169" y2="739"/>
	</g>
</g>
<text transform="matrix(1 0 0 1 63.1157 356.9785)" font-family="'RobotoMono-Regular'" font-size="24px">vmax?</text>
<text transform="matrix(1 0 0 1 921.1274 290.8967)" fill="#FF0000" font-family="'RobotoMono-Regular'" font-size="24px">p1</text>
<text transform="matrix(1 0 0 1 954.3749 288.8967)" fill="#FF0000" font-family="'RobotoMono-Regular'" font-size="14px">(=distance)</text>
<text transform="matrix(1 0 0 1 921.1274 497.4785)" fill="#FF0000" font-family="'RobotoMono-Regular'" font-size="24px">pvmax?</text>
<text transform="matrix(1 0 0 1 919.6766 921.9785)" fill="#FF0000" font-family="'RobotoMono-Regular'" font-size="24px">p0(=0)</text>
<line fill="none" stroke="#000000" stroke-miterlimit="10" x1="169.5" y1="923.5" x2="169.5" y2="938.5"/>
<line fill="none" stroke="#FF0000" stroke-miterlimit="10" x1="907.7" y1="915.5" x2="892.7" y2="915.5"/>
<line fill="none" stroke="#FF0000" stroke-miterlimit="10" x1="907.7" y1="492" x2="892.7" y2="492"/>
<line fill="none" stroke="#FF0000" stroke-miterlimit="10" x1="907.7" y1="284.4" x2="892.7" y2="284.4"/>
<line fill="none" stroke="#000000" stroke-miterlimit="10" x1="159.8" y1="739.4" x2="144.8" y2="739.4"/>
<line fill="none" stroke="#000000" stroke-miterlimit="10" x1="159.8" y1="352.5" x2="144.8" y2="352.5"/>
<line fill="none" stroke="#000000" stroke-miterlimit="10" x1="564.5" y1="924" x2="564.5" y2="939"/>
<line fill="none" stroke="#000000" stroke-miterlimit="10" x1="882.5" y1="924" x2="882.5" y2="939"/>
<g>
	<text transform="matrix(1 0 0 1 916.8767 1164.8318)" fill="#FF0000" font-family="'RobotoMono-Regular'" font-size="18px">p1 = v0 * dt0 + (a0 * dt0 * dt0) / 2 + v1 * dt1 + (-a1 * dt1 * dt1) / 2</text>
</g>
<path fill="none" stroke="#000000" stroke-miterlimit="10" d="M556.2,925.8c0,21.4-187.9-8.3-187.9,25.7c0-34-187.9-4.2-187.9-25.7"
	/>
<path fill="none" stroke="#FF0000" stroke-miterlimit="10" d="M894.8,498.8c21.4,0-8.3,205,25.7,205c-34,0-4.2,205-25.7,205"/>
<path fill="none" stroke="#FF0000" stroke-miterlimit="10" d="M894.8,292.4c21.4,0-8.3,94.3,25.7,94.3c-34,0-4.2,94.3-25.7,94.3"/>
<text transform="matrix(1 0 0 1 702.9985 971.9785)" font-family="'RobotoMono-Italic'" font-size="18px">dt1?</text>
<text transform="matrix(1 0 0 1 347.121 971.9785)" font-family="'RobotoMono-Italic'" font-size="18px">dt0?</text>
<path fill="none" stroke="#000000" stroke-miterlimit="10" d="M874,925.8c0,21.4-150-8.3-150,25.7c0-34-150-4.2-150-25.7"/>
<path fill="#CCCCCC" stroke="#000000" stroke-miterlimit="10" d="M169.5,826.5l65.2,0c0,0,0,0,0,0c0-19.3-8.6-37.7-23.5-50.1
	L169.5,826.5z"/>
<path fill="#CCCCCC" stroke="#000000" stroke-miterlimit="10" d="M564.5,352.5l41.4,50.4c7.5-6.1,13.5-13.8,17.6-22.5
	c4.1-8.7,6.3-18.2,6.3-27.9H564.5z"/>
<g>
	<text transform="matrix(1 0 0 1 202.1252 815.3337)" font-family="'RobotoMono-Regular'" font-size="24px">α</text>
</g>
<g>
	<text transform="matrix(1 0 0 1 598.1252 378.7086)" font-family="'RobotoMono-Regular'" font-size="24px">β</text>
</g>
<path fill="none" stroke="#FF0000" stroke-miterlimit="10" d="M169.5,915.5c131.8-37.2,316-328.3,385.5-412.9
	c73.2-89.1,189.4-201.6,328-218.2"/>
<text transform="matrix(1 0 0 1 637.1729 396.5845)" font-family="'RobotoMono-Regular'" font-size="24px">a1 = tan(β)</text>
<text transform="matrix(1 0 0 1 265.1915 248.0919)"><tspan x="0" y="0" font-family="'RobotoMono-Regular'" font-size="24px">a0 &gt; 0</tspan><tspan x="0" y="28.8" font-family="'RobotoMono-Regular'" font-size="24px">a1 &lt; 0</tspan></text>
<polyline points="615,403.5 605.9,402.9 606.5,393.9 "/>
<polyline points="212.1,785.4 211.2,776.4 220.3,775.5 "/>
<text transform="matrix(1 0 0 1 244.7155 801.4443)" font-family="'RobotoMono-Regular'" font-size="24px">a0 = tan(α)</text>
</svg>
